<svg width="151" height="48" viewBox="0 0 151 48" fill="none" xmlns="http://www.w3.org/2000/svg">
  <rect width="150" height="48" transform="translate(0.5)" fill="white"/>
  <circle cx="37" cy="14.5" r="2.5" fill="#84D94D"/>
  <path d="M35.6797 21.4414C35.6797 20.6453 36.325 20 37.1211 20C37.9172 20 38.5625 20.6453 38.5625 21.4414V30.5586C38.5625 31.3547 37.9172 32 37.1211 32C36.325 32 35.6797 31.3547 35.6797 30.5586V21.4414Z" fill="#292D32"/>
  <path d="M49.0977 25.0391C49.0977 23.2031 48.2227 22.2852 46.4727 22.2852C45.707 22.2852 45.0703 22.5312 44.5625 23.0234C44.0625 23.5078 43.8125 24.1328 43.8125 24.8984V30.5586C43.8125 31.3547 43.1672 32 42.3711 32C41.575 32 40.9297 31.3547 40.9297 30.5586V21.4414C40.9297 20.6453 41.575 20 42.3711 20C43.1672 20 43.8125 20.6453 43.8125 21.4414V21.8281C44.25 21.1406 44.8086 20.6055 45.4883 20.2227C46.168 19.832 46.8672 19.6367 47.5859 19.6367C48.8906 19.6367 49.9453 20.0625 50.75 20.9141C51.5625 21.7578 51.9688 22.9336 51.9688 24.4414V30.5645C51.9688 31.3573 51.326 32 50.5332 32C49.7404 32 49.0977 31.3573 49.0977 30.5645V25.0391Z" fill="#292D32"/>
  <path d="M60.2891 27.3008L58.1328 27.0547C56.7891 26.8594 55.793 26.4727 55.1445 25.8945C54.4961 25.3164 54.1719 24.4961 54.1719 23.4336C54.1719 22.2773 54.625 21.3633 55.5312 20.6914C56.4453 20.0195 57.6875 19.6836 59.2578 19.6836C60.7812 19.6836 62.0117 20.0273 62.9492 20.7148C63.4496 21.0787 63.8361 21.5149 64.1088 22.0232C64.5136 22.7776 63.8181 23.5508 62.9619 23.5508C62.2636 23.5508 61.7283 22.9806 61.2497 22.472C60.8309 22.0271 60.1748 21.8047 59.2812 21.8047C58.6094 21.8047 58.0742 21.9375 57.6758 22.2031C57.2773 22.4688 57.0781 22.8242 57.0781 23.2695C57.0781 23.6758 57.2109 23.9844 57.4766 24.1953C57.7422 24.3984 58.1523 24.5352 58.707 24.6055L60.9922 24.8516C62.3281 25.0234 63.3047 25.4141 63.9219 26.0234C64.5391 26.625 64.8477 27.5117 64.8477 28.6836C64.8477 29.7617 64.3867 30.6289 63.4648 31.2852C62.5508 31.9414 61.332 32.2695 59.8086 32.2695C58.1523 32.2695 56.8164 31.9258 55.8008 31.2383C55.3048 30.8999 54.9119 30.501 54.6222 30.0416C54.1344 29.268 54.8663 28.4258 55.7808 28.4258C56.5066 28.4258 57.0651 29.0152 57.5759 29.5308C57.6657 29.6214 57.7654 29.7023 57.875 29.7734C58.3203 30.0547 58.957 30.1953 59.7852 30.1953C60.4805 30.1953 61.0352 30.0664 61.4492 29.8086C61.8633 29.5508 62.0703 29.2031 62.0703 28.7656C62.0703 27.9297 61.4766 27.4414 60.2891 27.3008Z" fill="#292D32"/>
  <path d="M66.9688 21.4414C66.9688 20.6453 67.6141 20 68.4102 20C69.2062 20 69.8516 20.6453 69.8516 21.4414V30.5586C69.8516 31.3547 69.2062 32 68.4102 32C67.6141 32 66.9688 31.3547 66.9688 30.5586V21.4414Z" fill="#292D32"/>
  <path d="M82.3262 20C83.119 20 83.7617 20.6427 83.7617 21.4355V32.2695C83.7617 33.6133 83.2461 34.6953 82.2148 35.5156C81.1914 36.3438 79.8359 36.7578 78.1484 36.7578C76.4766 36.7578 75.0977 36.3828 74.0117 35.6328C73.4263 35.2285 72.9692 34.7504 72.6403 34.1985C72.1881 33.4396 72.8793 32.6211 73.7628 32.6211C74.4871 32.6211 75.0651 33.2363 75.6024 33.7221C75.7005 33.8108 75.8109 33.893 75.9336 33.9688C76.4648 34.3047 77.1641 34.4727 78.0312 34.4727C78.9453 34.4727 79.6484 34.2656 80.1406 33.8516C80.6406 33.4453 80.8906 32.875 80.8906 32.1406V29.457C80.4609 30.1758 79.9102 30.7305 79.2383 31.1211C78.5742 31.5117 77.8203 31.707 76.9766 31.707C75.4766 31.707 74.2656 31.1523 73.3438 30.043C72.4219 28.9336 71.9609 27.4727 71.9609 25.6602C71.9609 23.8633 72.4219 22.4141 73.3438 21.3125C74.2656 20.2109 75.4766 19.6602 76.9766 19.6602C77.8125 19.6602 78.5664 19.8594 79.2383 20.2578C79.9102 20.6484 80.4609 21.2031 80.8906 21.9219V21.4355C80.8906 20.6427 81.5333 20 82.3262 20ZM74.9141 25.6602C74.9141 26.7773 75.1758 27.6445 75.6992 28.2617C76.2305 28.8789 76.9688 29.1875 77.9141 29.1875C78.8594 29.1875 79.5898 28.8789 80.1055 28.2617C80.6289 27.6445 80.8906 26.7773 80.8906 25.6602C80.8906 24.543 80.6289 23.6797 80.1055 23.0703C79.5898 22.4609 78.8594 22.1562 77.9141 22.1562C76.9609 22.1562 76.2227 22.4648 75.6992 23.082C75.1758 23.6914 74.9141 24.5508 74.9141 25.6602Z" fill="#292D32"/>
  <path d="M94.3086 25.0391C94.3086 23.2031 93.4336 22.2852 91.6836 22.2852C90.918 22.2852 90.2812 22.5312 89.7734 23.0234C89.2734 23.5078 89.0234 24.1328 89.0234 24.8984V32H86.1406V21.4414C86.1406 20.6453 86.786 20 87.582 20C88.3781 20 89.0234 20.6453 89.0234 21.4414V21.8281C89.4609 21.1406 90.0195 20.6055 90.6992 20.2227C91.3789 19.832 92.0781 19.6367 92.7969 19.6367C94.1016 19.6367 95.1562 20.0625 95.9609 20.9141C96.7734 21.7578 97.1797 22.9336 97.1797 24.4414V30.5645C97.1797 31.3573 96.537 32 95.7441 32C94.9513 32 94.3086 31.3573 94.3086 30.5645V25.0391Z" fill="#292D32"/>
  <path d="M99.5 21.4414C99.5 20.6453 100.145 20 100.941 20C101.737 20 102.383 20.6453 102.383 21.4414V30.5586C102.383 31.3547 101.737 32 100.941 32C100.145 32 99.5 31.3547 99.5 30.5586V21.4414Z" fill="#292D32"/>
  <path d="M115.285 28.332C115.285 28.9854 115.31 29.5743 115.36 30.0988C115.449 31.0381 114.741 32 113.798 32C113.216 32 112.689 31.6297 112.586 31.057C112.526 30.7227 112.484 30.3651 112.461 29.9844C112.062 30.7109 111.516 31.2773 110.82 31.6836C110.125 32.0898 109.344 32.293 108.477 32.293C107.32 32.293 106.367 31.9414 105.617 31.2383C104.867 30.5352 104.492 29.6445 104.492 28.5664C104.492 27.5117 104.805 26.6836 105.43 26.082C106.055 25.4727 106.949 25.1406 108.113 25.0859L111.23 24.8984C111.66 24.8672 111.965 24.7734 112.145 24.6172C112.324 24.4609 112.414 24.2188 112.414 23.8906V23.8438C112.414 23.2969 112.184 22.832 111.723 22.4492C111.27 22.0664 110.715 21.875 110.059 21.875C109.144 21.875 108.478 22.1159 108.06 22.5977C107.559 23.1759 106.989 23.8203 106.223 23.8203C105.339 23.8203 104.609 23.0395 104.999 22.2465C105.273 21.6901 105.678 21.2069 106.215 20.7969C107.207 20.0391 108.488 19.6602 110.059 19.6602C111.605 19.6602 112.863 20.082 113.832 20.9258C114.801 21.7695 115.285 22.8594 115.285 24.1953V28.332ZM107.422 28.3086C107.422 28.8008 107.613 29.1953 107.996 29.4922C108.379 29.7891 108.891 29.9375 109.531 29.9375C110.344 29.9375 111.027 29.6641 111.582 29.1172C112.137 28.5703 112.414 27.8906 112.414 27.0781V26.668L109.168 26.8438C108.004 26.9141 107.422 27.4023 107.422 28.3086Z" fill="#292D32"/>
  <ellipse cx="62.5298" cy="22" rx="0.982913" ry="0.951567" transform="rotate(2.89527 62.5298 22)" fill="#84D94D"/>
</svg>
